<svg width="26" height="26" viewBox="0 0 26 26" fill="none" xmlns="http://www.w3.org/2000/svg">
<path d="M17.8467 5.85867L20.1412 8.15209L17.8467 5.85867ZM19.3222 3.83825L13.1179 10.0425C12.7973 10.3626 12.5787 10.7705 12.4896 11.2147L11.9165 14.0833L14.7852 13.5092C15.2293 13.4203 15.6367 13.2026 15.9573 12.8819L22.1616 6.67767C22.348 6.49123 22.4959 6.2699 22.5968 6.0263C22.6977 5.78271 22.7496 5.52163 22.7496 5.25796C22.7496 4.9943 22.6977 4.73321 22.5968 4.48962C22.4959 4.24603 22.348 4.02469 22.1616 3.83825C21.9751 3.65181 21.7538 3.50392 21.5102 3.40302C21.2666 3.30212 21.0055 3.25019 20.7419 3.25019C20.4782 3.25019 20.2171 3.30212 19.9735 3.40302C19.7299 3.50392 19.5086 3.65181 19.3222 3.83825V3.83825Z" stroke="white" stroke-width="2" stroke-linecap="round" stroke-linejoin="round"/>
<path d="M20.5833 16.25V19.5C20.5833 20.0746 20.355 20.6257 19.9487 21.0321C19.5423 21.4384 18.9912 21.6667 18.4166 21.6667H6.49992C5.92528 21.6667 5.37418 21.4384 4.96785 21.0321C4.56153 20.6257 4.33325 20.0746 4.33325 19.5V7.58334C4.33325 7.0087 4.56153 6.4576 4.96785 6.05127C5.37418 5.64494 5.92528 5.41667 6.49992 5.41667H9.74992" stroke="white" stroke-width="2" stroke-linecap="round" stroke-linejoin="round"/>
</svg>
